<?xml version="1.0" encoding="UTF-8" standalone="no"?>
<!DOCTYPE svg PUBLIC "-//W3C//DTD SVG 1.1//EN" "http://www.w3.org/Graphics/SVG/1.1/DTD/svg11.dtd">
<svg width="100%" height="100%" viewBox="0 0 33 34" version="1.1" xmlns="http://www.w3.org/2000/svg" xmlns:xlink="http://www.w3.org/1999/xlink" xml:space="preserve" xmlns:serif="http://www.serif.com/" style="fill-rule:evenodd;clip-rule:evenodd;stroke-linejoin:round;stroke-miterlimit:2;">
    <g transform="matrix(1,0,0,-1,0,34)">
        <g transform="matrix(1,0,0,-1,9.66362,20.6793)">
            <circle cx="6.836" cy="3.679" r="12.545" style="fill:white;"/>
        </g>
        <g id="Logo_1" transform="matrix(0.0349147,0,0,-0.0349147,-28.7393,36.9614)">
            <path d="M1288,581.988C1288,581.988 1286.95,585.403 1288,595.818C1289.05,606.233 1278.27,630.477 1278.27,630.477L1278.27,646.64L1282.31,668.013L1282.31,713.987C1282.31,713.987 1285.6,728.803 1288,743.619C1290.4,758.436 1288,779.986 1288,779.986C1288,779.986 1287.7,804.414 1282.31,812.404C1276.93,820.394 1278.27,836.557 1278.27,836.557L1271.54,862.149L1271.54,875.618L1245.95,883.7C1245.95,883.7 1251.36,864.843 1235.86,875.618C1220.36,886.394 1216.65,888.973 1216.65,888.973L1210.93,875.618C1210.93,875.618 1219.01,864.843 1196.11,862.149C1173.21,859.455 1158.4,862.149 1158.4,862.149L1152.35,868.884L1152.35,888.973L1140.08,906.598L1131.46,921.414L1131.46,932.189C1131.46,932.189 1126.09,925.455 1152.35,932.189C1178.6,938.924 1174.58,956.434 1192.76,951.046C1210.93,945.659 1223.31,941.988 1223.31,941.988L1231.13,932.189L1252.68,921.414L1252.68,932.189L1278.27,932.189L1299.82,921.414L1317.33,906.598L1317.33,893.128L1325.42,868.884L1325.42,848.68L1329.46,812.404L1329.46,747.66L1325.42,723.415L1325.42,595.818L1317.33,581.988L1307.91,574.267L1288,581.988Z"/>
            <path d="M1101.83,883.7L1084.32,893.128L1061.42,883.7L1038.52,870.231L1019.66,852.72L996.765,828.476L984.643,812.404C984.643,812.404 985.99,815.459 973.868,798.396C961.745,781.333 948.837,763.164 948.837,763.164L940.195,734.191L922.684,685.701L913.256,660.11L899.787,610.64L899.787,574.267L913.256,526.764L922.684,472.887L922.684,447.295L940.195,414.969L979.255,340.888L1038.52,288.358C1038.52,288.358 1053.34,268.154 1066.81,261.419C1080.28,254.684 1119.78,229.227 1132.71,223.84C1145.65,218.452 1209.58,198.113 1209.58,198.113L1313.29,191.379L1408.82,191.379C1408.82,191.379 1410.27,196.767 1438.56,206.195C1466.84,215.624 1473.04,211.852 1491.49,223.84C1509.94,235.827 1505.9,235.827 1540.92,261.419C1575.94,287.011 1584.84,309.382 1601.54,329.353C1618.23,349.325 1627.13,346.847 1629.82,363.188C1632.52,379.53 1634.15,371.25 1648.51,398.005C1675.86,448.983 1662.14,406.36 1668.64,440.94C1670.38,450.169 1669.69,431.316 1680.06,486.448C1690.43,541.58 1690.43,546.968 1690.43,564.478C1690.43,581.988 1693.13,559.823 1690.43,610.64C1687.74,661.457 1694.34,657.066 1687,675.424C1679.66,693.783 1670.23,713.987 1660.8,728.803C1651.37,743.619 1633.98,749.777 1623.2,766.902C1612.43,784.027 1610.45,787.672 1597.3,808.074C1584.14,828.476 1578.47,841.945 1568.51,852.72C1558.55,863.496 1545.08,874.271 1527.57,883.7C1510.06,893.128 1478.97,910.638 1478.97,910.638C1478.97,910.638 1463.53,921.414 1447.68,926.802C1431.82,932.189 1401.98,942.332 1401.98,942.332L1376.6,952.06L1368.52,926.802L1368.52,893.128L1384.68,883.7L1401.98,905.251L1418.35,893.128L1442.6,883.7L1478.97,870.231C1478.97,870.231 1475.73,875.618 1491.49,856.761C1507.25,837.904 1520.72,828.476 1520.72,828.476L1540.92,800.982C1540.92,800.982 1549.01,777.321 1555.74,763.164C1562.48,749.007 1575.94,734.191 1575.94,734.191C1575.94,734.191 1594.8,712.64 1601.54,696.477C1608.27,680.314 1629.82,642.6 1629.82,642.6L1629.82,595.818L1636.56,556.396L1656.76,549.662L1656.76,526.764L1644.64,507.907L1623.2,472.887L1596.15,429.785L1586.72,393.418C1586.72,393.418 1567.86,386.683 1555.74,381.296C1543.62,375.908 1526.11,354.357 1526.11,354.357C1526.11,354.357 1527.45,348.969 1512.64,340.888C1497.82,332.806 1502.67,332.635 1491.49,329.353C1480.31,326.072 1475.35,324.616 1475.35,324.616L1442.6,314.182C1442.6,314.182 1447.99,322.031 1423.74,305.868C1416.13,300.794 1416.51,290.658 1408.82,288.358C1389.48,282.574 1382.99,284.506 1372.56,280.508C1372.56,280.508 1368.52,291.051 1356.39,288.358C1344.27,285.664 1344.86,285.793 1344.86,285.793L1293.09,269.501L1282.31,261.419L1261.01,248.144C1261.01,248.144 1241.69,250.05 1232.88,252.309C1175.38,267.058 1184.72,262.766 1165.86,269.501C1147.01,276.235 1148.07,274.22 1140.08,278.71C1132.08,283.2 1123.57,269.63 1116.83,285.793C1110.1,301.957 1137.23,285.823 1116.83,297.866C1096.44,309.908 1095.09,308.061 1084.32,317.066C1073.54,326.072 1082.13,344.583 1061.42,340.888C1047.81,338.461 1031.78,359.103 1033.73,360.19C1033.73,360.19 1025.05,373.214 1019.66,381.296C1014.28,389.377 1014.28,398.806 1008.89,414.969C1003.5,431.132 998.112,447.295 998.112,447.295L984.643,494.438C984.643,494.438 992.725,494.438 998.112,507.907C1003.5,521.376 991.378,549.662 991.378,549.662C991.378,549.662 985.99,545.621 984.643,564.478C983.296,583.335 982.339,540.165 982.818,590.035C983.296,639.906 983.566,668.013 983.566,668.013L991.378,696.477C991.378,696.477 998.112,718.028 996.765,728.803C995.419,739.579 1014.28,779.986 1014.28,779.986C1014.28,779.986 1022.9,795.534 1044.29,798.396C1083.84,803.687 1095.78,812.404 1095.78,812.404L1116.83,817.568L1131.01,828.476L1132.71,856.761L1116.83,866.19L1101.83,883.7Z"/>
            <path d="M1169.05,336.13L1159.35,361.991L1163.66,420.179L1169.05,497.762L1180.9,525.778L1174.44,554.871L1159.35,564.569L1128.1,568.879L1115.17,579.655L1097.93,599.051L1083.92,611.981L1065.61,616.291L1054.83,635.687L1046.21,670.168C1046.21,670.168 1041.9,672.324 1046.21,685.254C1050.52,698.185 1065.61,720.813 1065.61,720.813C1065.61,720.813 1076.38,744.367 1076.38,754.68L1076.38,770.38L1097.93,770.38C1097.93,770.38 1105.47,770.38 1122.71,782.233C1139.96,794.086 1163.66,802.706 1163.66,802.706L1174.44,807.016L1180.9,812.404L1195.99,812.404L1217.54,798.396C1217.54,798.396 1228.31,814.559 1228.31,798.396L1228.31,738.054C1228.31,725.123 1235.86,697.107 1235.86,697.107L1228.31,660.471L1228.31,550.561L1220.77,515.002L1216.46,493.451L1217.54,461.125L1217.54,340.44L1202.45,336.13L1169.05,336.13ZM1188.44,595.818L1148.58,604.438L1140.08,616.291L1135.65,624.912L1119.48,645.385L1111.94,664.781L1111.94,696.029C1111.94,710.037 1119.48,728.356 1119.48,728.356L1148.58,735.899L1173.36,740.209L1192.76,740.209L1192.76,701.417L1188.44,673.401L1188.44,638.92L1192.76,621.679L1188.44,595.818Z"/>
            <path d="M1385.63,356.604L1357.62,350.138L1351.15,360.914C1351.15,360.914 1352.23,384.62 1351.15,400.783C1350.08,416.946 1350,427.788 1348.42,441.763C1346.84,455.737 1343.72,455.385 1345.28,469.569C1346.84,483.754 1344.88,479.185 1348.02,494.4C1350.67,507.291 1355.72,515.449 1357.2,517.639C1357.08,518.428 1357.1,521.208 1357.62,529.01C1358.7,545.173 1360.85,541.941 1357.62,558.104C1354.39,574.267 1349,576.422 1351.69,587.736C1354.39,599.051 1349,596.896 1351.69,616.291C1354.39,635.687 1351.69,658.315 1351.69,658.315L1357.62,699.262C1357.62,699.262 1355.46,697.107 1357.62,716.503C1359.77,735.899 1359.93,725.465 1361.47,751.155C1363.01,776.845 1367.32,787.621 1367.32,787.621L1385.63,787.621L1410.42,798.396L1419.04,787.621L1440.59,781.155C1440.59,781.155 1448.13,769.302 1466.45,763.915C1484.77,758.527 1497.85,754.68 1497.85,754.68L1510.63,740.209C1510.63,740.209 1514.94,732.666 1520.33,724.046C1525.72,715.425 1546.19,668.013 1546.19,668.013C1546.19,668.013 1550.5,661.548 1550.5,650.773L1550.5,603.361L1546.19,574.267L1536.49,574.267L1533.26,558.104L1510.63,561.337L1497.85,565.647L1490.16,574.267C1490.16,574.267 1476.15,582.887 1466.45,583.965C1456.75,585.043 1452.44,579.655 1440.59,583.965C1428.74,588.275 1415.93,592.931 1415.93,592.931L1405.9,551.167C1405.03,541.228 1405.03,535.476 1405.03,535.476L1405.03,508.537L1400.72,478.366L1395.33,433.109L1395.33,370.612L1400.72,359.836L1395.33,356.604L1385.63,356.604ZM1494.19,610.64L1471.43,612.709L1459.71,612.709L1447.68,614.778C1447.68,614.778 1441.09,616.157 1441.09,623.743C1441.09,631.329 1446.61,631.329 1433.5,635.466C1420.4,639.604 1425.71,633.427 1420.3,642.033C1414.88,650.638 1411.73,655.651 1411.73,655.651C1411.73,655.651 1407.3,652.707 1409.37,674.085C1411.44,695.464 1411.73,724.428 1411.73,724.428L1430.06,740.209L1454.19,740.209L1459.71,732.704L1471.43,709.946L1476.95,705.119L1501.09,678.223L1507.98,668.013L1503.85,652.017L1503.85,629.949L1497.64,612.709L1494.19,610.64ZM1357.2,517.639C1357.34,517.836 1357.44,517.985 1357.51,518.085C1357.58,518.185 1357.62,518.235 1357.62,518.235C1357.62,518.235 1357.33,516.793 1357.2,517.639Z"/>
        </g>
    </g>
</svg>
